<?xml version="1.0" encoding="utf-8"?>
<!-- Generator: Adobe Illustrator 19.0.0, SVG Export Plug-In . SVG Version: 6.00 Build 0)  -->
<svg version="1.1" id="图层_1" xmlns="http://www.w3.org/2000/svg" xmlns:xlink="http://www.w3.org/1999/xlink"
	 viewBox="-23 143.9 548 554" style="enable-background:new -23 143.9 548 554;" xml:space="preserve">
<style type="text/css">
	.st0{stroke:#000000;stroke-miterlimit:10;}

	<def>
		<style>
			.st0{
			fill:white;
			stroke-width:14;
			stroke-dasharray:26000;
			-webkit-animation:dash 4s infinite;
			-o-animation:dash 4s infinite;
			-moz-animation:dash 4s infinite;
			-ms-animation:dash 4s infinite;
			animation:dash 4s infinite;
			}

			@-webkit-keyframes dash{
			0%{
			stroke-dashoffset:26000;
			}
			100%{
			stroke-dashoffset:0;
			}
			}

		</style>
	</def>


</style>
<g transform="translate(0.000000,554.000000) scale(0.100000,-0.100000)">
	<path class="st0" d="M2267,4084.1c-2-1-45-7-97-13c-439-50-928-257-1320-559c-186-144-459-436-599-640c-144-211-260-449-339-691
		c-42-129-101-384-123-525c-19-123-16-563,4-710c91-651,407-1268,859-1675l83-75l-72,80c-359,401-562,859-635,1430
		c-18,142-15,527,6,675c70,505,257,938,579,1340c47,58,81,106,77,108c-5,2-29-12-53-30c-25-18-64-46-88-63c-23-16-62-45-86-62
		c-24-18-45-33-48-33c-9,0-5,35,8,57c69,122,99,171,152,253c204,312,409,521,705,717c312,207,577,315,950,387c96,19,109,23,77,27
		C2286,4085.1,2268,4086.1,2267,4084.1z"/>
	<path class="st0" d="M3885,3840.1c-141-16-267-54-418-125c-301-143-478-268-697-488l-135-137l2-107c3-138,27-308,58-411
		c13-45,26-85,29-90s23-3,43,5c67,23,75,20,141-63c34-43,88-109,121-146c88-102,119-172,171-395c8-35,9-57,2-64
		c-12-12-53,54-125,203c-69,143-120,213-230,313c-99,89-94,88-223,38c-66-26-70-29-61-50c7-16,6-29-3-47c-12-23-9-28,68-110
		c117-125,213-271,265-404c15-36,21-42,40-37c20,5,24-1,40-52c40-125,69-230,77-282c4-30,14-84,21-120c9-43,13-145,12-305
		c0-205-3-254-21-340c-12-55-22-119-22-143v-43l88,75c48,41,112,100,142,130l54,56l-21,64l-21,65l32,3l32,3l-13,75
		c-32,185-37,482-10,535c10,19,11,19,18-6c3-15,12-66,18-115c31-233,82-534,91-534c11,0,170,168,236,250c80,100,144,190,144,205
		c0,7-25,35-56,63l-56,52l4,65c3,44,0,65-7,65s-24,58-40,138c-33,162-57,236-127,390c-50,111-51,115-32,129c18,13,18,15,2,27
		c-44,32-328,301-369,348c-67,77-115,147-141,203c-19,43-22,67-23,170c0,105,3,125,22,162c13,23,36,50,53,60c17,9,41,34,55,55
		c13,20,52,66,87,103c171,183,495,382,683,419c96,19,387,63,505,77c47,5,92,12,100,15c24,9-5,21-104,44c-71,16-118,20-254,19
		C4040,3849.1,3929,3844.1,3885,3840.1z"/>
	<path class="st0" d="M3205,3750.1c-494-147-961-550-1191-1026c-27-57-50-93-59-93c-19,0-15,16,32,154c19,54,32,104,30,110
		c-7,20-112-157-237-399c-68-132-155-287-194-345s-72-108-74-112s20-10,48-14c55-7,68-17,50-39c-10-12-2-20,51-45l64-30l22,38
		c13,20,24,41,26,46c2,6,30-9,63-33c38-28,60-38,62-29c1,7-6,43-16,79c-22,77-16,99,35,123c35,17,36,17,90-16c64-39,466-441,537-538
		c57-77,128-215,150-291c9-30,20-105,25-167s11-116,14-119c3-2,14,0,25,6c19,10,19,8,11-28c-5-21-8-98-7-172c1-126-7-182-37-252
		c-7-16-4-16,38,2c72,31,126,69,147,104c11,18,38,44,62,58l43,25l8,95c13,161,3,392-22,492c-69,276-189,495-436,793
		c-44,53-90,109-102,124l-23,28l30,12c24,10,30,18,28,39c-3,23,5,30,75,64c60,31,77,44,77,61c0,11-18,113-39,226
		c-29,156-42,204-52,202c-8-2-42-14-76-28c-34-13-64-24-67-24c-41,0,97,262,206,389c81,96,165,164,348,285c74,49,175,116,224,148
		c49,33,105,68,126,78c20,10,42,26,49,34c12,14,9,16-25,15C3322,3780.1,3260,3766.1,3205,3750.1z"/>
	<path class="st0" d="M4277,3693.1c-95-16-221-57-362-120c-55-24-125-54-155-66c-114-47-209-97-320-168c-139-89-293-199-338-242
		c-82-76-94-172-38-318c49-130,91-192,206-310c80-82,119-113,165-134c54-25,62-26,104-15c57,15,63,21,172,154
		c84,102,158,216,173,264c7,22,44,37,70,27c23-9,112-143,156-236s72-193,95-349c9-57,18-115,21-129s10-83,14-155c5-71,12-160,16-196
		c6-61,4-71-22-119c-29-54-82-103-144-136c-25-13-58-18-115-19c-67,0-87,4-123,24c-41,24-42,24-57,5c-26-34-18-71,25-118l40-43
		l208-7c114-4,229-8,255-9l48-2l29,85c33,98,100,309,100,316c0,2-11,4-25,4c-29,0-30,4-9,90c8,36,17,140,21,234l6,169l-32-6
		c-30-6-31-6-31,32c0,22,5,62,11,89c14,57-2,244-22,268c-6,8-22,14-34,14c-39,0-70,36-205,237c-73,109-144,211-159,226
		c-37,41-76,59-108,51c-42-10-58-24-113-97c-53-71-105-106-182-127c-78-21-117-80-118-181c0-41-24-72-32-41c-6,22,24,179,40,209
		c11,19,106,73,130,73c19,0,96,76,110,109c8,20,18,73,23,119c4,46,14,94,23,106c8,13,50,43,93,67c205,112,261,142,303,159
		c25,10,87,37,139,60c92,40,167,62,376,110c77,18,95,25,78,31C4721,3705.1,4392,3712.1,4277,3693.1z"/>
	<path class="st0" d="M4236,3321.1c-37-10-133-33-213-51c-164-37-193-53-193-105v-35l54,6c112,14,166-33,351-309l120-179l71-32
		c65-30,75-39,136-121c128-176,197-329,228-511c20-111,21-185,4-275c-5-24-2-28,29-33c33-7,35-9,31-43c-8-79-24-283-30-389l-7-112
		l34-6c19-3,57-7,84-8l50-2l8,70c4,39,6,203,3,365l-4,295l23-72c34-101,49-314,36-504c-19-272-73-493-183-754
		c-263-624-684-1032-1317-1279c-454-177-831-207-1321-102c-421,89-802,289-1129,592c-157,145-342,406-469,659
		c-184,370-253,678-238,1068c9,243,22,354,61,512c65,271,170,513,319,739c43,65,76,120,73,122c-12,13-259-282-352-421
		c-139-207-319-629-355-833c-5-31-16-93-24-137c-43-244-47-654-8-886c78-459,255-850,558-1229c129-161,231-254,369-337
		c247-148,417-226,675-306c277-87,426-109,735-111c275-1,419,14,650,69c301,72,472,134,693,251c713,379,1222,1047,1403,1844
		c74,325,79,817,13,1130c-59,276-172,588-293,805c-101,182-271,412-417,564c-102,107-108,111-148,110
		C4324,3340.1,4274,3331.1,4236,3321.1z M4571,2802.1c132-111,229-231,297-366c32-65,86-225,78-233c-11-10-34,20-51,66
		c-26,69-50,107-134,207c-42,50-98,122-124,162c-27,40-67,88-90,108s-52,46-64,57c-22,19-33,78-15,78
		C4473,2881.1,4519,2845.1,4571,2802.1z"/>
	<path class="st0" d="M3895,2609.1c-26-40-59-86-72-102c-31-37-29-47,36-241c56-165,85-299,75-351c-4-22-1-46,9-67
		c35-76,26-132-13-85c-36,42-61,105-95,240c-54,207-98,358-105,358c-15,0-190-103-190-112c0-5,18-34,40-65c39-55,39-55,19-72l-21-17
		l35-70c49-99,86-213,105-331c9-57,21-103,26-103s32-19,60-43c79-65,79-65,139-81c52-14,63-13,110,2c71,23,136,89,159,161
		c14,43,15,58,5,69c-7,9-19,96-29,211c-25,301-44,452-62,501c-18,47-133,225-165,254C3943,2682.1,3940,2680.1,3895,2609.1z"/>
	<path class="st0" d="M4505,2369.1c5-86,10-106,27-120c29-25,108-22,108,3c0,17-123,219-133,219
		C4502,2471.1,4500,2431.1,4505,2369.1z"/>
	<path class="st0" d="M4606,2179.1c-38-5-70-9-71-11c-1-1,2-45,7-97c9-88,2-193-19-292c-5-26-3-28,26-28c17,0,31-5,31-11
		c0-7-28-93-61-193c-42-121-63-202-67-246l-4-65l156-39c86-21,159-37,161-35c10,11,36,305,33,379c-3,85-3,85-31,88c-21,3-27,8-23,20
		c30,95,21,314-19,439c-14,44-31,85-38,90S4647,2184.1,4606,2179.1z"/>
	<path class="st0" d="M2005,1981.1c-34-35-97-73-152-90c-21-7-42-16-46-20c-5-4,34-39,87-76c203-144,41-76-256,108
		c-69,43-137,78-150,78c-14,0-76-42-168-116c-80-64-147-118-149-120s26-54,63-115c67-108,71-124,52-170c-5-12,6-25,46-49
		c58-36,180-156,203-200c8-15,26-35,40-44c25-16,26-16,93,37c75,60,180,124,260,158c64,26,56,34-44,43c-106,9-131,16-161,44l-28,26
		l30,12c44,19,121,17,206-6c90-24,131-25,257-4s206,14,305-25c43-17,84-31,92-31c33,0-97,154-311,368c-122,122-226,222-231,222
		S2021,1997.1,2005,1981.1z"/>
	<path class="st0" d="M1026,1610.1c-48-45-121-123-164-174c-78-94-267-351-277-377c-4-11,14-26,62-51c64-34,72-41,112-114
		c88-157,120-209,166-272l48-65l30,34c28,31,30,32,40,14c6-10,49-58,95-107c91-92,199-171,322-233c80-40,341-136,349-128
		c3,2-48,57-112,122c-218,218-302,364-302,524c0,42,4,80,8,84c5,5,23,0,40-10c72-41,148-78,153-74c2,3-21,43-51,90
		c-75,115-77,132-26,190l41,46l-72,86l-72,86l-27-73c-33-92-37-99-122-230c-38-59-75-106-81-104c-26,9-4,70,78,210
		c79,136,86,152,86,202c0,53-1,55-47,90c-25,19-51,34-57,32s-57-66-113-143c-56-76-108-139-114-139c-7,0-16,7-22,16
		c-8,13,14,50,111,184c85,117,122,176,121,194c-1,32-79,165-100,169C1121,1690.1,1074,1655.1,1026,1610.1z"/>
	<path class="st0" d="M2910,566.1c-36-24-99-59-140-76c-129-54-152-70-235-154c-104-107-116-110-227-54c-45,23-107,57-136,75
		c-50,33-72,41-72,28c0-4,46-55,101-115c56-60,100-111,98-112c-2-2-32-16-67-31c-34-15-84-37-109-48l-47-21l38-33
		c77-66,243-140,379-169c105-23,319-20,431,6c97,22,241,87,277,125l22,23l-66,79c-130,156-179,273-180,430c0,50,0,92-1,92
		C2976,611.1,2946,590.1,2910,566.1z"/>
</g>
</svg>
